<svg width="193" height="56" viewBox="0 0 193 56" fill="none" xmlns="http://www.w3.org/2000/svg">
<rect width="193" height="56" fill="#293241"/>
<path d="M127.135 26.8813V30.0887H125.125V32.1921H127.135V39.3391C127.135 41.7795 128.239 42.7557 131.017 42.7557C131.505 42.7557 131.97 42.6976 132.376 42.6279V40.5477C132.028 40.5826 131.807 40.6058 131.424 40.6058C130.18 40.6058 129.634 40.0248 129.634 38.6999V32.1921H132.376V30.0887H129.634V26.8813H127.135Z" fill="#FEFEFE"/>
<path d="M139.452 42.93C143.147 42.93 145.413 40.4547 145.413 36.3525C145.413 32.2735 143.136 29.7866 139.452 29.7866C135.756 29.7866 133.479 32.2735 133.479 36.3525C133.479 40.4547 135.745 42.93 139.452 42.93ZM139.452 40.7104C137.279 40.7104 136.059 39.1183 136.059 36.3525C136.059 33.6099 137.279 32.0062 139.452 32.0062C141.613 32.0062 142.845 33.6099 142.845 36.3525C142.845 39.1067 141.613 40.7104 139.452 40.7104Z" fill="#FEFEFE"/>
<path d="M147.352 42.686H149.851V35.2136C149.851 33.4356 151.187 32.2386 153.082 32.2386C153.523 32.2386 154.267 32.32 154.476 32.3897V29.926C154.209 29.8563 153.732 29.8214 153.36 29.8214C151.71 29.8214 150.304 30.7279 149.944 31.9713H149.758V30.0306H147.352V42.686Z" fill="#FEFEFE"/>
<path d="M160.68 31.9132C162.528 31.9132 163.736 33.2032 163.794 35.1904H157.403C157.542 33.2148 158.832 31.9132 160.68 31.9132ZM163.783 39.2694C163.318 40.2572 162.284 40.8034 160.773 40.8034C158.774 40.8034 157.484 39.3972 157.403 37.1776V37.0381H166.339V36.1666C166.339 32.1921 164.213 29.7866 160.692 29.7866C157.124 29.7866 154.858 32.3548 154.858 36.399C154.858 40.4431 157.077 42.93 160.703 42.93C163.597 42.93 165.619 41.5355 166.188 39.2694H163.783Z" fill="#FEFEFE"/>
<path d="M110.75 38.0126C110.943 41.1201 113.533 43.1076 117.387 43.1076C121.506 43.1076 124.084 41.0238 124.084 37.6994C124.084 35.0856 122.615 33.6402 119.049 32.8091L117.134 32.3394C114.87 31.8094 113.954 31.0988 113.954 29.8581C113.954 28.2923 115.376 27.2685 117.508 27.2685C119.531 27.2685 120.928 28.2682 121.181 29.8702H123.807C123.65 26.9433 121.073 24.8836 117.544 24.8836C113.75 24.8836 111.22 26.9433 111.22 30.0388C111.22 32.5923 112.653 34.11 115.797 34.8447L118.038 35.3868C120.338 35.9288 121.35 36.7237 121.35 38.0487C121.35 39.5904 119.76 40.7106 117.592 40.7106C115.267 40.7106 113.653 39.6627 113.424 38.0126H110.75Z" fill="#FEFEFE"/>
<path d="M84.8681 29.8214C83.1482 29.8214 81.6607 30.6814 80.8937 32.1224H80.7077V30.0306H78.3022V46.8928H80.8007V40.7685H80.9983C81.6607 42.1049 83.0901 42.8952 84.8913 42.8952C88.0871 42.8952 90.1208 40.3734 90.1208 36.3525C90.1208 32.3316 88.0871 29.8214 84.8681 29.8214ZM84.1592 40.6523C82.0674 40.6523 80.7542 39.0021 80.7542 36.3641C80.7542 33.7145 82.0674 32.0643 84.1708 32.0643C86.2859 32.0643 87.5526 33.6796 87.5526 36.3525C87.5526 39.037 86.2859 40.6523 84.1592 40.6523Z" fill="#FEFEFE"/>
<path d="M98.8636 29.8214C97.1437 29.8214 95.6562 30.6814 94.8892 32.1224H94.7032V30.0306H92.2977V46.8928H94.7962V40.7685H94.9938C95.6562 42.1049 97.0856 42.8952 98.8868 42.8952C102.083 42.8952 104.116 40.3734 104.116 36.3525C104.116 32.3316 102.083 29.8214 98.8636 29.8214ZM98.1547 40.6523C96.0629 40.6523 94.7497 39.0021 94.7497 36.3641C94.7497 33.7145 96.0629 32.0643 98.1663 32.0643C100.281 32.0643 101.548 33.6796 101.548 36.3525C101.548 39.037 100.281 40.6523 98.1547 40.6523Z" fill="#FEFEFE"/>
<path d="M73.8194 42.686H76.6861L70.4107 25.3052H67.5078L61.2324 42.686H64.0028L65.6047 38.0728H72.2294L73.8194 42.686ZM68.8207 28.4609H69.0255L71.5429 35.8083H66.2913L68.8207 28.4609Z" fill="#FEFEFE"/>
<path d="M62.9121 12.1953V20.5799H65.9394C68.4379 20.5799 69.8848 19.0401 69.8848 16.3615C69.8848 13.7235 68.4263 12.1953 65.9394 12.1953H62.9121ZM64.2137 13.3807H65.7941C67.5315 13.3807 68.56 14.4847 68.56 16.3789C68.56 18.3022 67.5489 19.3946 65.7941 19.3946H64.2137V13.3807Z" fill="#FEFEFE"/>
<path d="M74.3159 20.7019C76.1636 20.7019 77.2967 19.4643 77.2967 17.4132C77.2967 15.3737 76.1578 14.1302 74.3159 14.1302C72.4681 14.1302 71.3293 15.3737 71.3293 17.4132C71.3293 19.4643 72.4623 20.7019 74.3159 20.7019ZM74.3159 19.5921C73.2293 19.5921 72.6192 18.7961 72.6192 17.4132C72.6192 16.0419 73.2293 15.24 74.3159 15.24C75.3967 15.24 76.0126 16.0419 76.0126 17.4132C76.0126 18.7903 75.3967 19.5921 74.3159 19.5921Z" fill="#FEFEFE"/>
<path d="M86.9457 14.2522H85.6964L84.5692 19.0808H84.4704L83.1688 14.2522H81.9719L80.6703 19.0808H80.5773L79.4443 14.2522H78.1776L79.9207 20.5799H81.2049L82.5064 15.9199H82.6052L83.9126 20.5799H85.2083L86.9457 14.2522Z" fill="#FEFEFE"/>
<path d="M88.3844 20.5799H89.6337V16.8786C89.6337 15.8908 90.2205 15.2749 91.1444 15.2749C92.0683 15.2749 92.5099 15.7804 92.5099 16.7973V20.5799H93.7591V16.4835C93.7591 14.9786 92.9805 14.1302 91.5686 14.1302C90.6156 14.1302 89.9881 14.5544 89.6801 15.2575H89.5872V14.2522H88.3844V20.5799Z" fill="#FEFEFE"/>
<path d="M95.7266 20.5799H96.9759V11.7828H95.7266V20.5799Z" fill="#FEFEFE"/>
<path d="M101.674 20.7019C103.522 20.7019 104.655 19.4643 104.655 17.4132C104.655 15.3737 103.516 14.1302 101.674 14.1302C99.8265 14.1302 98.6876 15.3737 98.6876 17.4132C98.6876 19.4643 99.8207 20.7019 101.674 20.7019ZM101.674 19.5921C100.588 19.5921 99.9776 18.7961 99.9776 17.4132C99.9776 16.0419 100.588 15.24 101.674 15.24C102.755 15.24 103.371 16.0419 103.371 17.4132C103.371 18.7903 102.755 19.5921 101.674 19.5921Z" fill="#FEFEFE"/>
<path d="M108.377 19.6328C107.697 19.6328 107.204 19.3016 107.204 18.7322C107.204 18.1744 107.599 17.878 108.47 17.8199L110.016 17.7211V18.2499C110.016 19.0343 109.319 19.6328 108.377 19.6328ZM108.058 20.6845C108.889 20.6845 109.58 20.3243 109.958 19.6909H110.057V20.5799H111.259V16.2569C111.259 14.9205 110.365 14.1302 108.778 14.1302C107.343 14.1302 106.32 14.8275 106.193 15.9141H107.401C107.541 15.4666 108.023 15.211 108.72 15.211C109.574 15.211 110.016 15.5887 110.016 16.2569V16.8031L108.302 16.9019C106.797 16.9948 105.949 17.6514 105.949 18.7903C105.949 19.9466 106.838 20.6845 108.058 20.6845Z" fill="#FEFEFE"/>
<path d="M115.499 20.6845C116.37 20.6845 117.108 20.272 117.486 19.5805H117.585V20.5799H118.782V11.7828H117.532V15.2575H117.439C117.097 14.5602 116.364 14.1477 115.499 14.1477C113.901 14.1477 112.872 15.4144 112.872 17.4132C112.872 19.4178 113.889 20.6845 115.499 20.6845ZM115.853 15.2691C116.899 15.2691 117.556 16.1 117.556 17.419C117.556 18.7438 116.905 19.5631 115.853 19.5631C114.796 19.5631 114.162 18.7554 114.162 17.4132C114.162 16.0826 114.801 15.2691 115.853 15.2691Z" fill="#FEFEFE"/>
<path d="M126.883 20.7019C128.731 20.7019 129.864 19.4643 129.864 17.4132C129.864 15.3737 128.725 14.1302 126.883 14.1302C125.035 14.1302 123.896 15.3737 123.896 17.4132C123.896 19.4643 125.029 20.7019 126.883 20.7019ZM126.883 19.5921C125.796 19.5921 125.186 18.7961 125.186 17.4132C125.186 16.0419 125.796 15.24 126.883 15.24C127.964 15.24 128.579 16.0419 128.579 17.4132C128.579 18.7903 127.964 19.5921 126.883 19.5921Z" fill="#FEFEFE"/>
<path d="M131.517 20.5799H132.767V16.8786C132.767 15.8908 133.353 15.2749 134.277 15.2749C135.201 15.2749 135.643 15.7804 135.643 16.7973V20.5799H136.892V16.4835C136.892 14.9786 136.113 14.1302 134.701 14.1302C133.748 14.1302 133.121 14.5544 132.813 15.2575H132.72V14.2522H131.517V20.5799Z" fill="#FEFEFE"/>
<path d="M142.646 12.6776V14.2813H141.64V15.333H142.646V18.9065C142.646 20.1267 143.198 20.6148 144.586 20.6148C144.83 20.6148 145.063 20.5857 145.266 20.5509V19.5108C145.092 19.5282 144.981 19.5398 144.79 19.5398C144.168 19.5398 143.895 19.2493 143.895 18.5869V15.333H145.266V14.2813H143.895V12.6776H142.646Z" fill="#FEFEFE"/>
<path d="M146.943 20.5799H148.192V16.8844C148.192 15.9257 148.762 15.2807 149.784 15.2807C150.668 15.2807 151.138 15.792 151.138 16.8031V20.5799H152.388V16.4951C152.388 14.9902 151.557 14.136 150.209 14.136C149.256 14.136 148.587 14.5602 148.28 15.2691H148.181V11.7828H146.943V20.5799Z" fill="#FEFEFE"/>
<path d="M156.894 15.1936C157.818 15.1936 158.422 15.8385 158.451 16.8321H155.256C155.325 15.8443 155.97 15.1936 156.894 15.1936ZM158.446 18.8716C158.213 19.3655 157.696 19.6386 156.941 19.6386C155.941 19.6386 155.296 18.9355 155.256 17.8257V17.756H159.724V17.3202C159.724 15.333 158.661 14.1302 156.9 14.1302C155.116 14.1302 153.983 15.4144 153.983 17.4364C153.983 19.4585 155.093 20.7019 156.906 20.7019C158.353 20.7019 159.364 20.0047 159.648 18.8716H158.446Z" fill="#FEFEFE"/>
<path d="M47.6772 28.4211C47.7075 26.0677 48.9714 23.8409 50.9764 22.6083C49.7115 20.8018 47.5929 19.6565 45.3887 19.5875C43.0378 19.3407 40.7587 20.9943 39.5607 20.9943C38.3395 20.9943 36.495 19.612 34.5088 19.6529C31.9198 19.7365 29.5063 21.2085 28.2467 23.4719C25.5391 28.1597 27.5587 35.0491 30.1524 38.8384C31.45 40.6939 32.9666 42.7665 34.951 42.693C36.8929 42.6125 37.6182 41.4548 39.9622 41.4548C42.2845 41.4548 42.9649 42.693 44.9896 42.6463C47.0733 42.6125 48.3862 40.7826 49.6383 38.9095C50.5707 37.5874 51.2881 36.1262 51.7641 34.58C49.3153 33.5443 47.68 31.0799 47.6772 28.4211Z" fill="#FEFEFE"/>
<path d="M43.8528 17.0955C44.989 15.7316 45.5487 13.9786 45.4132 12.2086C43.6774 12.3909 42.074 13.2205 40.9226 14.5321C39.7966 15.8136 39.2106 17.5358 39.3214 19.238C41.0578 19.2559 42.7648 18.4488 43.8528 17.0955Z" fill="#FEFEFE"/>
</svg>
