<?xml version="1.0" encoding="utf-8"?>
<!-- Generator: Adobe Illustrator 26.5.0, SVG Export Plug-In . SVG Version: 6.00 Build 0)  -->
<svg version="1.1" id="Layer_1" xmlns="http://www.w3.org/2000/svg" xmlns:xlink="http://www.w3.org/1999/xlink" x="0px" y="0px"
	 viewBox="0 0 512 512" style="enable-background:new 0 0 512 512;" xml:space="preserve">
<style type="text/css">
	.st0{fill:#0082C9;}
</style>
<path class="st0" d="M32,32h448c17.7,0,32,14.3,32,32v32c0,17.7-14.3,32-32,32H32c-17.7,0-32-14.3-32-32V64C0,46.3,14.3,32,32,32z
	 M32,160h448v256c0,35.3-28.7,64-64,64H96c-35.3,0-64-28.7-64-64V160z M160,240c0,8.8,7.2,16,16,16h160c8.8,0,16-7.2,16-16
	s-7.2-16-16-16H176C167.2,224,160,231.2,160,240z"/>
</svg>
