<svg width="36" height="37" viewBox="0 0 36 37" fill="none" xmlns="http://www.w3.org/2000/svg">
<circle cx="17.8328" cy="18.7313" r="17.8328" fill="url(#paint0_linear_617_1839)"/>
<path d="M26.7188 18.25C26.7188 13.4688 22.7812 9.53125 18 9.53125C13.1836 9.53125 9.28125 13.4688 9.28125 18.25C9.28125 23.0664 13.1836 26.9688 18 26.9688C22.7812 26.9688 26.7188 23.0664 26.7188 18.25ZM16.9805 22.8906C16.7695 23.1016 16.3828 23.1016 16.1719 22.8906L12.5156 19.2344C12.3047 19.0234 12.3047 18.6367 12.5156 18.4258L13.3242 17.6523C13.5352 17.4062 13.8867 17.4062 14.0977 17.6523L16.5938 20.1133L21.8672 14.8398C22.0781 14.5938 22.4297 14.5938 22.6406 14.8398L23.4492 15.6133C23.6602 15.8242 23.6602 16.2109 23.4492 16.4219L16.9805 22.8906Z" fill="white"/>
<defs>
<linearGradient id="paint0_linear_617_1839" x1="37.53" y1="8.06882" x2="-2.98445" y2="31.3764" gradientUnits="userSpaceOnUse">
<stop stop-color="#30B6FF"/>
<stop offset="1" stop-color="#0082C9"/>
</linearGradient>
</defs>
</svg>
