<svg width="24" height="24" viewBox="0 0 24 24" fill="none" xmlns="http://www.w3.org/2000/svg">
<path d="M12 23.625C5.57812 23.625 0.375 18.4219 0.375 12C0.375 5.57812 5.57812 0.375 12 0.375C18.4219 0.375 23.625 5.57812 23.625 12C23.625 18.4219 18.4219 23.625 12 23.625ZM17.3438 12.7969C17.8125 12.375 17.8125 11.6719 17.3438 11.2031L11.0156 4.875C10.5938 4.45312 9.84375 4.45312 9.42188 4.875L8.625 5.67188C8.20312 6.09375 8.20312 6.79688 8.625 7.26562L13.4062 12L8.625 16.7812C8.20312 17.2031 8.20312 17.9531 8.625 18.375L9.42188 19.1719C9.84375 19.5938 10.5469 19.5938 11.0156 19.1719L17.3438 12.7969Z" fill="#004871"/>
</svg>
