<?xml version="1.0" encoding="utf-8"?>
<!-- Generator: Adobe Illustrator 26.5.0, SVG Export Plug-In . SVG Version: 6.00 Build 0)  -->
<svg version="1.1" id="OBJECTS" xmlns="http://www.w3.org/2000/svg" xmlns:xlink="http://www.w3.org/1999/xlink" x="0px" y="0px"
	 viewBox="0 0 481.1 398.7" style="enable-background:new 0 0 481.1 398.7;" xml:space="preserve">
<style type="text/css">
	.st0{fill:#AD5DDD;}
	.st1{fill:#DC911B;}
	.st2{fill:#ECC038;}
	.st3{fill:#FFFFFF;}
	.st4{fill:none;stroke:#D660CD;stroke-width:8;stroke-miterlimit:10;}
	.st5{fill:none;stroke:#31B7DE;stroke-width:8;stroke-miterlimit:10;}
	.st6{fill:none;stroke:#DC911B;stroke-width:8;stroke-miterlimit:10;}
	.st7{fill:none;stroke:#DE80D7;stroke-width:8;stroke-miterlimit:10;}
	.st8{fill:none;stroke:#ECC038;stroke-width:8;stroke-miterlimit:10;}
	.st9{fill:none;stroke:#AD5DDD;stroke-width:8;stroke-miterlimit:10;}
	.st10{fill:none;stroke:#D642B4;stroke-width:8;stroke-miterlimit:10;}
	.st11{fill:none;stroke:#AD5DDD;stroke-width:6;stroke-miterlimit:10;}
	.st12{fill:none;stroke:#ECC038;stroke-width:6;stroke-miterlimit:10;}
	.st13{fill:none;stroke:#DC911B;stroke-width:6;stroke-miterlimit:10;}
	.st14{fill:none;stroke:#31B7DE;stroke-width:6;stroke-miterlimit:10;}
	.st15{fill:none;stroke:#D642B4;stroke-width:6;stroke-miterlimit:10;}
	.st16{fill:none;stroke:#D642B4;stroke-width:3;stroke-miterlimit:10;}
	.st17{fill:none;stroke:#31B7DE;stroke-width:3;stroke-miterlimit:10;}
	.st18{fill:none;stroke:#ECC038;stroke-width:3;stroke-miterlimit:10;}
	.st19{fill:none;stroke:#DC911B;stroke-width:3;stroke-miterlimit:10;}
	.st20{fill:none;stroke:#D660CD;stroke-width:3;stroke-miterlimit:10;}
	.st21{fill:#DE80D7;}
	.st22{fill:#31B7DE;}
	.st23{fill:#D642B4;}
</style>
<g>
	<g>
		<path class="st0" d="M166.4,128.5c-1.6-6.8-12-4.2-10.7,2.6C157.3,138.8,168.9,136.1,166.4,128.5"/>
	</g>
	<g>
		<path class="st1" d="M292,49.5c-2.1-8.8-15.6-5.5-13.9,3.4C280.2,62.9,295.3,59.3,292,49.5"/>
	</g>
	<g>
		<path class="st0" d="M124,301.1c-2.1-8.8-15.6-5.5-13.9,3.4C112.1,314.5,127.2,311,124,301.1"/>
	</g>
	<g>
		<path class="st2" d="M373,170.3c-1.6-6.8-12-4.2-10.7,2.6C363.9,180.7,375.5,177.9,373,170.3"/>
	</g>
	<g>
		<path class="st3" d="M218.2,64.3c-0.9-3.9-6.8-2.4-6.1,1.5C212.9,70.2,219.6,68.7,218.2,64.3"/>
	</g>
	<g>
		<path class="st3" d="M404.3,42.5c-1.2-4.8-8.6-3-7.7,1.9C397.8,49.8,406.1,47.9,404.3,42.5"/>
	</g>
	<g>
		<path class="st3" d="M240.2,183.2c-0.7-2.9-5.2-1.8-4.7,1.1C236.3,187.7,241.3,186.5,240.2,183.2"/>
	</g>
	<g>
		<path class="st3" d="M208.6,348.5c-1.2-4.8-8.6-3-7.7,1.9C202.1,355.9,210.4,353.9,208.6,348.5"/>
	</g>
	<g>
		<path class="st3" d="M180.2,223.6c-1-4.4-7.7-2.7-6.9,1.7C174.3,230.2,181.8,228.4,180.2,223.6"/>
	</g>
	<g>
		<path class="st3" d="M326.7,5.9c-0.9-3.9-6.8-2.4-6.1,1.5C321.5,11.8,328.1,10.2,326.7,5.9"/>
	</g>
	<g>
		<path class="st3" d="M104.4,262.1c-0.7-2.9-5.2-1.8-4.7,1.1C100.4,266.6,105.5,265.4,104.4,262.1"/>
	</g>
	<g>
		<path class="st3" d="M465.4,156.3c-1-4.4-7.7-2.7-6.9,1.7C459.5,162.9,467,161.1,465.4,156.3"/>
	</g>
	<g>
		<path class="st3" d="M21.3,244.6c-0.9-3.9-6.8-2.4-6.1,1.5C16.1,250.5,22.7,249,21.3,244.6"/>
	</g>
	<g>
		<path class="st3" d="M67.5,161.3c-1.2-4.8-8.6-3-7.7,1.9C60.9,168.7,69.3,166.8,67.5,161.3"/>
	</g>
	<g>
		<path class="st3" d="M351,135.6c-0.7-2.9-5.2-1.8-4.7,1.1C347,140.1,352.1,138.9,351,135.6"/>
	</g>
	<path class="st4" d="M251.3,81.3c-2,4.6-3,8.7-4.1,12.8"/>
	<path class="st5" d="M423.1,98.3c-2.3,6-3.8,11.4-5.2,16.9"/>
	<path class="st6" d="M215.3,206.3c-6.7,0.4-12.5,0.3-18.7,1.6"/>
	<path class="st6" d="M71.2,291.8c-2.8,5.1-5.6,10.2-8.4,15.3"/>
	<path class="st7" d="M112.6,127.2c-1.8,6.8-4.1,12.8-7.8,18.4"/>
	<path class="st8" d="M361.3,55.6c-8.1,0.1-15-4-21.9-5.8"/>
	<path class="st9" d="M54.2,209.7c-6.7,0.4-13.4,0.8-19.2,0.8"/>
	<path class="st10" d="M152.5,255.5c-5.8-0.1-9.9-1.2-15.4-2.6"/>
	<path class="st11" d="M179.4,305.8c-3.1,0.6-6.2,1.3-8.1,0.1"/>
	<path class="st12" d="M258.4,137.3c-4.5,0.3-5-0.6-8.6-0.8"/>
	<path class="st13" d="M95.4,189.2c-2.6,1.5-3.3,4.2-4,7"/>
	<path class="st14" d="M170.5,93.5c-2.6,1.5-4.8,1.6-7.6,0.9"/>
	<path class="st15" d="M386.5,128.8c0.1,2.2-1.1,4.1-1.8,6.8"/>
	<path class="st16" d="M87.8,338.6c-0.5,1.8-1.9,3.4-2.4,5.2"/>
	<path class="st17" d="M295,94.1c-3.2,1.1-5.9,1.9-9.4,2.4"/>
	<path class="st18" d="M15.6,187.8c-1.6,2.5-4.2,4.7-6.2,6.7"/>
	<path class="st19" d="M368.2,9.1c-0.5,1.8-1.2,4.6-2.3,6.7"/>
	<path class="st20" d="M323.5,190.9c-1.3,3.1-2.9,5.6-4.2,8.6"/>
	<path class="st17" d="M246.8,235.4c-2.5-1.6-5.2-2.4-7.6-2.5"/>
	<g>
		<g>
			<path class="st21" d="M369.6,101.1c-4.5-2.3-9.7-3.3-14.6-3.9c-6.1-0.7-12.3-0.7-18.4-0.1c-5.7,0.6-11.6,1.9-16.8,4.6
				c-4.6,2.4-8.2,6.3-10,11.2c-3.7,9.9,6.1,17.1,12.2,23.1c0.8,0.8,1.5,1.6,2.3,2.5c-0.4-0.4-0.1-0.2,0.1,0.1
				c0.1,0.2,0.3,0.4,0.4,0.6c0.3,0.4,0.6,0.9,0.9,1.4c0.2,0.3-0.1-0.2-0.1-0.2c0.1,0.1,0.1,0.2,0.2,0.3c0.1,0.2,0.2,0.4,0.3,0.7
				c0.1,0.2,0.1,0.4,0.2,0.6c0.2,0.5,0-0.3,0.1,0.4c0.1,0.4,0.1,0.8,0.2,1.3c0,0.1,0,0.8,0,0.4c0,0.3,0,0.6-0.1,0.9
				c-0.1,1-0.4,2-0.7,2.9c0.1-0.3-0.1,0.1-0.1,0.2c-0.1,0.2-0.2,0.3-0.3,0.5c-0.1,0.2-0.2,0.3-0.4,0.5c-0.1,0.1-0.5,0.5-0.3,0.4
				c0.2-0.2-0.2,0.2-0.3,0.2c-0.2,0.1-0.3,0.2-0.5,0.3c-0.2,0.1-0.3,0.2-0.5,0.2c-0.1,0.1-0.8,0.3-0.3,0.1c-0.9,0.3-1.8,0.4-2.7,0.4
				c-0.3,0,0.1,0,0.1,0c-0.1,0-0.3,0-0.4,0c-0.3,0-0.5,0-0.8,0c-0.6,0-1.1-0.1-1.7-0.1c-1.2-0.1-2.3-0.3-3.5-0.6
				c-0.3-0.1,0.1,0,0.1,0c-0.2,0-0.3-0.1-0.5-0.1c-0.3-0.1-0.6-0.1-1-0.2c-0.6-0.1-1.3-0.3-1.9-0.5c-1.3-0.3-2.6-0.7-3.9-1
				c-5-1.3-10.2-2.8-15.4-3c-4.4-0.1-9,1.1-11.4,5.2c-2.5,4.3-1,9.2,1.2,13.2c2.4,4.3,6.1,8.1,10.2,10.8c3,1.9,8.1,4.7,11.6,2.4
				c1.9-1.3,2-3.3,1.8-5.5c-0.2-2.2-1-4.3-2.2-6.2c-2.6-3.9-7-6.7-11.5-7.8c-9.9-2.5-20.6,1.6-25.7,10.6c-1.5,2.7-2.7,5.8-3.1,8.9
				c-0.4,3.4,0,6.7,0.7,10c0.7,3.1,1.6,6.1,2.2,9.2c0.5,2.7,0.7,5.4-0.4,8c-1.2,3-4,4.9-6.7,6.3c-2.4,1.3,2.1,5.5,4.2,4.4
				c2.9-1.5,5.9-3.7,7.4-6.7c1.3-2.6,1.5-5.4,1.3-8.2c-0.6-6-3.2-11.6-3.3-17.6c-0.2-5.5,2.4-11.1,6.1-15c3.1-3.2,7.1-5.1,11.4-5.7
				c0.5-0.1,1.1-0.1,1.6-0.2c0.1,0,0.8,0,0.3,0c0.3,0,0.6,0,0.9,0c1,0,2.1,0.2,3.1,0.3c0.5,0.1-0.4-0.1,0.2,0
				c0.2,0.1,0.5,0.1,0.7,0.2c0.5,0.1,1,0.3,1.5,0.5c0.1,0,0.8,0.3,0.4,0.1c-0.4-0.2,0.3,0.1,0.4,0.2c0.4,0.2,0.9,0.4,1.3,0.7
				c0.7,0.4-0.4-0.3,0,0c0.2,0.1,0.4,0.2,0.5,0.4c0.2,0.1,0.3,0.3,0.5,0.4c0.7,0.5-0.4-0.4,0.1,0.1c0.3,0.3,0.6,0.6,0.9,0.9
				c0.5,0.5-0.3-0.4,0,0c0.1,0.2,0.3,0.4,0.4,0.6c0.1,0.2,0.2,0.4,0.4,0.6c0.3,0.4-0.2-0.5,0,0.1c0.2,0.4,0.4,0.8,0.5,1.3
				c0,0.1,0.1,0.2,0.1,0.3c0,0-0.1-0.4,0-0.2c0.1,0.2,0.1,0.4,0.1,0.6c0.1,0.5,0.2,1,0.2,1.5c0,0.9,0.2,1.2-0.2,1.8
				c-0.1,0.1-0.2,0.2-0.3,0.3c-0.3,0.4,0.1,0-0.1,0.1c-0.2,0.1-0.9,0.4-0.6,0.3c0.4-0.1-0.1,0-0.2,0c-0.1,0-0.3,0-0.4,0.1
				c-0.5,0.1,0.4,0,0,0c-0.2,0-0.4,0-0.6-0.1c-0.4,0-0.4-0.1,0,0c-0.2,0-0.4-0.1-0.5-0.1c-0.4-0.1-0.8-0.3-1.2-0.4
				c0.9,0.3-0.3-0.2-0.6-0.3c-0.5-0.2-0.9-0.5-1.4-0.8c0.5,0.3,0.2,0.1-0.1-0.1c-0.2-0.1-0.4-0.3-0.6-0.4c-0.5-0.3-0.9-0.7-1.4-1.1
				c-0.1-0.1-0.7-0.6-0.4-0.3c0.3,0.3-0.2-0.2-0.4-0.3c-0.4-0.4-0.8-0.8-1.2-1.2c-0.4-0.4-0.8-0.8-1.2-1.3c-0.1-0.1-0.1-0.2-0.2-0.3
				c-0.3-0.3,0.3,0.4,0.1,0.1c-0.2-0.2-0.4-0.5-0.6-0.7c-0.6-0.9-1.2-1.8-1.8-2.7c0.3,0.6-0.1-0.2-0.2-0.4c-0.1-0.2-0.2-0.5-0.3-0.7
				c-0.2-0.5-0.4-1-0.6-1.5c0-0.1-0.1-0.3-0.1-0.4c0,0,0.1,0.4,0,0.1c-0.1-0.2-0.1-0.5-0.2-0.7c-0.1-0.5-0.2-1-0.2-1.5
				c0-0.1,0-0.7,0-0.5c0,0.2,0-0.4,0-0.5c0.1-0.5,0.2-1,0.3-1.5c0.2-0.8,0.5-1.3,1.2-2.2c0.7-0.8,1.2-1.3,2-1.9
				c0.3-0.2,0.7-0.4,1.1-0.6c0.2-0.1,0.4-0.2,0.6-0.2c-0.4,0.2,0.2-0.1,0.4-0.1c0.9-0.2,1.9-0.4,2.9-0.4c0.4,0-0.2,0,0.3,0
				c0.3,0,0.5,0,0.8,0c0.6,0,1.2,0.1,1.8,0.1c1.2,0.1,2.3,0.3,3.5,0.5c0.2,0,0.5,0.1,0.7,0.1c0.5,0.1,0.2,0,0,0
				c0.2,0,0.3,0.1,0.5,0.1c0.6,0.1,1.2,0.3,1.9,0.4c1.3,0.3,2.5,0.6,3.8,0.9c4.7,1.2,9.5,2.7,14.4,3.1c3.6,0.3,8.1-0.1,10.1-3.6
				c2.2-3.8,1.6-8.3-0.5-12c-2.2-3.8-5.7-6.7-8.8-9.6c-0.8-0.8-1.6-1.5-2.4-2.3c-0.4-0.4-0.7-0.7-1-1.1c-0.2-0.2-0.3-0.4-0.5-0.6
				c-0.2-0.2-0.6-0.7-0.2-0.2c-0.6-0.8-1.2-1.6-1.7-2.5c0.3,0.5,0,0-0.1-0.2c-0.1-0.2-0.2-0.4-0.3-0.6c-0.1-0.2-0.2-0.4-0.2-0.6
				c0-0.1-0.1-0.2-0.1-0.4c-0.1-0.3,0.1,0.5,0-0.1c-0.5-2.1-0.3-3.6,0.4-5.7c0.8-2.1,2.2-4.2,3.7-5.9c3.1-3.4,8-5.4,12.5-6.5
				c5.5-1.4,11.4-2,17-2c2.8,0,5.6,0.2,8.4,0.5c1.3,0.1,2.5,0.3,3.8,0.6c1.2,0.2,1.7,0.3,3.1,0.7c1,0.3,2,0.5,2.9,0.9
				c0.3,0.1,0.5,0.2,0.8,0.3c0.1,0,0.2,0.1,0.3,0.1c0.4,0.1-0.5-0.2-0.2-0.1c0.4,0.2,0.8,0.4,1.2,0.6c0.9,0.5,2.8,0.9,3.1-0.6
				C372.2,103,370.7,101.6,369.6,101.1L369.6,101.1z"/>
		</g>
	</g>
	<g>
		<g>
			<path class="st22" d="M158,167.7c-10.2,3.7-21,6.6-30,12.9c-4.1,2.9-8.2,7-10,11.8c-1.4,3.7-0.9,7.4-0.8,11.2
				c0.1,4.6-0.7,9.4-2.5,13.6c-0.8,1.7-1.4,2.8-2.8,4c-0.3,0.2-0.5,0.4-0.8,0.6c-0.1,0.1-0.7,0.4-0.1,0.1c-0.1,0.1-0.2,0.1-0.4,0.2
				c-0.7,0.4-1.5,0.7-2.3,0.9c-0.1,0-0.3,0.1-0.4,0.1c0.7-0.2,0,0-0.1,0c-0.4,0.1-0.7,0.1-1.1,0.2c-0.9,0.2-1.9,0.3-2.8,0.4
				c-1.9,0.2-3.9,0.4-5.8,0.6c-5,0.7-9.9,2-14.3,4.4c-10,5.4-15.9,15-20.2,25.2c-1.2,2.7,5.8,5.6,6.9,2.8
				c3.7-8.8,8.5-17.3,16.8-22.6c3.9-2.5,8.4-4.1,12.9-4.8c3.7-0.6,7.6-0.6,11.3-1.4c3.6-0.8,6.7-2.3,8.8-5.4
				c2.6-3.7,3.7-8.7,4.1-13.2c0.4-3.8-0.3-7.7,0-11.5c0-0.5,0-0.3,0.1-0.8c0.1-0.5,0.2-0.9,0.4-1.3c0.3-1,0.8-2,1.3-3
				c1.3-2.3,3.2-4.3,5.1-6.1c4.3-4,9.8-6.5,15.2-8.7c5.5-2.2,11.2-4,16.8-6c1.7-0.6,0.8-2.4-0.1-3.3
				C161.7,167.7,159.6,167.1,158,167.7L158,167.7z"/>
		</g>
	</g>
	<g>
		<g>
			<path class="st0" d="M468.6,184.6c-3.9,2.2-8.1,3.4-12.4,2.9c-2-0.2-3.5-0.6-5.4-1.4c-0.9-0.3-1.9-0.7-2.8-1.2
				c-0.4-0.2-0.8-0.4-1.3-0.6c-0.5-0.3-0.7-0.4-1-0.5c-6.9-3.7-14.1-8.9-22.3-8.8c-5.5,0.1-10.4,2.6-14.6,6.1c-1,0.8-1,2.1-0.4,3.1
				c0.5,0.8,2,1.9,3,1.1c3.5-3,7.6-5.4,12.3-5.6c0.5,0,1.8,0,2.6,0.1c0.4,0,0.9,0.1,1.3,0.2c0.2,0,0.4,0.1,0.6,0.1
				c0.2,0.1,0.1,0,0.5,0.1c1.8,0.5,3.6,1.2,5.3,2c1.8,0.8,3.1,1.6,5,2.6c1.8,1,3.5,2,5.3,2.9c3.7,2,7.6,3.7,11.9,4.3
				c5.3,0.7,10.5-0.7,15.1-3.3C473.4,187.6,470.8,183.3,468.6,184.6L468.6,184.6z"/>
		</g>
	</g>
	<g>
		<g>
			<path class="st23" d="M206.5,102.6c-4.5,2.7-8.3,6.7-7.3,12.3c0.9,4.8,4.1,9,6.6,13.1c1.2,2,2.5,4,3.2,6.2
				c0.8,2.4,0.9,5.1,0.6,7.6c-0.6,4.6-2.9,8.8-4.8,13c-2.2,4.9-3.3,10-1.6,15.2c0.4,1.3,6.5-0.9,6-2.5c-1.4-4.5-0.8-8.9,1-13.2
				c1.7-4.1,4-8,5-12.3c1.1-4.8,0.5-9.5-1.8-13.8c-2.3-4.2-5.3-8-7.2-12.5c-0.9-2.2-1.5-4.6-1-6.9c0.7-2.7,2.6-4.5,4.9-5.8
				c0.6-0.4,1.9-1.5,0.5-1.8C209.4,101,207.6,102,206.5,102.6L206.5,102.6z"/>
		</g>
	</g>
	<g>
		<g>
			<path class="st2" d="M148.8,326.7c-5.1,1.7-10.2,4.1-13.5,8.6c-2.4,3.3-3.3,7.5-3.5,11.5c-0.4,8.6,1.5,17.6-2.6,25.6
				c-3.2,6.2-9.2,10.3-15.3,13.3c-1.4,0.7,0.2,2.6,0.8,3.2c1.2,0.9,2.8,1.4,4.1,0.8c5.7-2.8,11.2-6.5,14.7-11.9
				c2.6-3.9,3.8-8.5,4.2-13.1c0.3-4.3,0-8.6-0.1-12.9c0-4,0.2-7.8,2-11.2c2.6-4.9,7.8-7.6,13-9.3c1.4-0.5,1-2,0.3-2.9
				C152.1,327.3,150.2,326.3,148.8,326.7L148.8,326.7z"/>
		</g>
	</g>
	<g>
		<g>
			<path class="st22" d="M392.4,215.3c-2.1-3-5-5.5-8.6-6.6c-2.6-0.9-5.5-0.9-8.2-0.9c-2.6,0-5.3,0.2-7.9-0.4
				c-0.4-0.1-0.7-0.2-1.1-0.3c0,0-0.8-0.3-0.4-0.1c-0.3-0.1-0.7-0.3-1-0.5c-0.2-0.1-0.3-0.2-0.5-0.3c0.3,0.2,0.2,0.2-0.1,0
				c-0.2-0.2-0.5-0.4-0.7-0.6c0.6,0.5-0.4-0.4-0.5-0.5c0.6,0.6-0.3-0.5-0.4-0.6c-0.3-0.4-0.3-0.4-0.1-0.1c-0.1-0.2-0.3-0.4-0.4-0.7
				c-0.7-1.1-2.2-3.2-3.8-2.9c-1.5,0.3-0.5,2.6-0.1,3.3c2,3.4,4.9,6.7,8.6,8.4c2.8,1.3,5.8,1.6,8.9,1.6c2.7,0,5.4-0.2,8,0.2
				c0.7,0.1,1.3,0.3,1.9,0.4c0.8,0.2,0.7,0.3,1.5,0.6c0.7,0.3-0.1-0.1,0.4,0.2c0.1,0.1,1,0.9,0.4,0.3c0.1,0.1,1,1.1,0.4,0.4
				c0.3,0.4,0.6,0.7,0.8,1.1c0.6,0.8,2.5,2.8,3.6,1.9C394.6,218.5,392.9,216,392.4,215.3L392.4,215.3z"/>
		</g>
	</g>
</g>
</svg>
