<?xml version="1.0" encoding="utf-8"?>
<!-- Generator: Adobe Illustrator 26.5.0, SVG Export Plug-In . SVG Version: 6.00 Build 0)  -->
<svg version="1.1" id="Layer_1" xmlns="http://www.w3.org/2000/svg" xmlns:xlink="http://www.w3.org/1999/xlink" x="0px" y="0px"
	 viewBox="0 0 1161.7 719.5" style="enable-background:new 0 0 1161.7 719.5;" xml:space="preserve">
<style type="text/css">
	.st0{fill:#FFFFFF;}
	.st1{fill:#EFEFEF;}
	.st2{fill:none;stroke:#EFEFEF;stroke-width:13;stroke-miterlimit:10;}
	.st3{fill:#CDD1D6;}
</style>
<g>
	<g>
		<path class="st0" d="M1102,84H57.6V40.7C57.6,25.9,69.5,14,84.2,14h991.1c14.7,0,26.6,11.9,26.6,26.6V84H1102z"/>
		<g>
			<circle class="st1" cx="97.4" cy="49.3" r="8.8"/>
			<circle class="st1" cx="128.1" cy="49.3" r="8.8"/>
			<circle class="st1" cx="159" cy="49.3" r="8.8"/>
		</g>
		<path class="st1" d="M840.5,62.5h-521c-4.1,0-7.5-3.3-7.5-7.5V43.5c0-4.1,3.3-7.5,7.5-7.5h521c4.1,0,7.5,3.3,7.5,7.5v11.6
			C848,59.2,844.7,62.5,840.5,62.5z"/>
	</g>
	<g>
		<path class="st2" d="M1067.1,675.3H94.6c-21.4,0-38.7-16.5-38.7-36.8V48.9C55.9,28.5,73.2,12,94.6,12h972.5
			c21.4,0,38.7,16.5,38.7,36.8v589.6C1105.9,658.8,1088.5,675.3,1067.1,675.3z"/>
		<g>
			<path class="st3" d="M96.3,674h969c1.1,0,2,0.9,2,2c0,1.5,0,3.6,0,5.1c0,1.1-0.9,2-2,2h-969c-1.1,0-2-0.9-2-2c0-1.5,0-3.6,0-5.1
				C94.3,674.9,95.2,674,96.3,674z"/>
			<path class="st1" d="M1152.3,712.7H9.4c-3.9,0-7-3.2-7-7v-16.4c0-3.9,3.2-7,7-7h1142.9c3.9,0,7,3.2,7,7c0,5,0,11.5,0,16.4
				C1159.3,709.5,1156.2,712.7,1152.3,712.7z"/>
		</g>
	</g>
</g>
</svg>
