<?xml version="1.0" encoding="utf-8"?>
<!-- Generator: Adobe Illustrator 26.5.0, SVG Export Plug-In . SVG Version: 6.00 Build 0)  -->
<svg version="1.1" id="Iphone" xmlns="http://www.w3.org/2000/svg" xmlns:xlink="http://www.w3.org/1999/xlink" x="0px" y="0px"
	 viewBox="0 0 370.7 748.7" style="enable-background:new 0 0 370.7 748.7;" xml:space="preserve">
<style type="text/css">
	.st0{fill:#EFEFEF;}
	.st1{fill:none;stroke:#EFEFEF;stroke-width:13;stroke-miterlimit:10;}
	.st2{fill:#FFFFFF;}
	.st3{fill-rule:evenodd;clip-rule:evenodd;fill:#171719;}
	.st4{fill:#171719;}
</style>
<g>
	<g id="Controls">
		<g id="left">
			<path class="st0" d="M6.5,162.3L6.5,162.3c-1.1,0-2-0.9-2-2v-22.7c0-1.1,0.9-2,2-2l0,0V162.3z"/>
			<path class="st0" d="M6.5,236.8L6.5,236.8c-1.1,0-2-0.9-2-2v-48c0-1.1,0.9-2,2-2l0,0V236.8z"/>
			<path class="st0" d="M6.5,301.8L6.5,301.8c-1.1,0-2-0.9-2-2v-48c0-1.1,0.9-2,2-2l0,0V301.8z"/>
		</g>
		<path id="right" class="st0" d="M367.2,301.8L367.2,301.8c1.1,0,2-0.9,2-2v-77.5c0-1.1-0.9-2-2-2l0,0V301.8z"/>
	</g>
	<path class="st1" d="M309.9,740.2h-246c-28.2,0-51-22.8-51-51v-627c0-28.2,22.8-51,51-51h246c28.2,0,51,22.8,51,51v627
		C360.9,717.4,338,740.2,309.9,740.2z"/>
	<g>
		<path class="st0" d="M218.6,55.9H151c-7.8,0-14.1-6.3-14.1-14.1l0,0c0-7.8,6.3-14.1,14.1-14.1h67.6c7.8,0,14.1,6.3,14.1,14.1l0,0
			C232.7,49.5,226.4,55.9,218.6,55.9z"/>
		<circle class="st2" cx="218.6" cy="41.8" r="5"/>
	</g>
	<g>
		<path id="Battery_Icon_-_100_x25__14_" class="st3" d="M314.9,41.6c0,1-0.5,1.9-1.6,1.9v-3.7C314.4,39.7,314.9,40.6,314.9,41.6z
			 M312.8,38.2V45l0,0c0,0.8-0.7,1.5-1.6,1.5h-20.5c-0.8,0-1.6-0.7-1.6-1.5l0,0v-6.8c0-0.8,0.7-1.6,1.6-1.6h20.5
			C312.1,36.6,312.8,37.3,312.8,38.2z M290.8,37.1c-0.6,0-1,0.5-1,1V45c0,0.6,0.5,1,1,1h20.5c0.6,0,1-0.5,1-1v-6.8c0-0.6-0.5-1-1-1
			h-20.5V37.1z M290.3,38.2V45c0,0.3,0.2,0.5,0.5,0.5h20.5c0.3,0,0.5-0.2,0.5-0.5v-6.8c0-0.3-0.2-0.5-0.5-0.5h-20.5
			C290.5,37.7,290.3,37.9,290.3,38.2z"/>
		<g>
			<path id="Wi-Fi_Icon_24_" class="st4" d="M277.4,36.6c2.2,0,4.4,0.8,6.3,2.4l-0.8,0.9c-1.5-1.3-3.4-2-5.5-2c-2,0-3.9,0.7-5.4,2
				l-1-0.9C272.9,37.5,275.1,36.6,277.4,36.6z M277.4,39.9c1.5,0,3,0.5,4.2,1.5l-0.9,1c-0.9-0.7-2.1-1.2-3.3-1.2s-2.4,0.4-3.3,1.2
				l-0.9-1C274.4,40.4,275.8,39.9,277.4,39.9z M277.4,43.1c0.7,0,1.4,0.3,2,0.7l-2,2.2l-2-2.2C275.9,43.3,276.6,43.1,277.4,43.1z"/>
		</g>
	</g>
	<g>
		<path class="st4" d="M60.6,45.5h-5.5v-1.2l2-2c0.4-0.4,0.7-0.7,1-1c0.2-0.3,0.4-0.5,0.5-0.7s0.2-0.5,0.2-0.7
			c0-0.3-0.1-0.5-0.3-0.7S58.1,39,57.8,39s-0.6,0-0.9,0.2c-0.3,0.2-0.6,0.3-0.9,0.6l-1-1.2c0.2-0.2,0.5-0.4,0.7-0.5
			c0.3-0.2,0.5-0.3,0.9-0.4c0.3-0.1,0.7-0.2,1.2-0.2s1,0.1,1.3,0.3c0.4,0.2,0.7,0.4,0.8,0.8c0.2,0.3,0.3,0.7,0.3,1.1
			c0,0.4-0.1,0.8-0.3,1.2s-0.4,0.7-0.7,1.1c-0.3,0.3-0.7,0.7-1.2,1.2l-1,1v0.1h3.4L60.6,45.5L60.6,45.5z"/>
		<path class="st4" d="M67,45.5h-5.5v-1.2l2-2c0.4-0.4,0.7-0.7,1-1c0.2-0.3,0.4-0.5,0.5-0.7s0.2-0.5,0.2-0.7c0-0.3-0.1-0.5-0.3-0.7
			C64.7,39,64.5,39,64.2,39s-0.6,0-0.9,0.2c-0.3,0.2-0.6,0.3-0.9,0.6l-0.9-1.1c0.2-0.2,0.5-0.4,0.7-0.5c0.3-0.2,0.5-0.3,0.9-0.4
			c0.3-0.1,0.7-0.2,1.2-0.2s1,0.1,1.3,0.3c0.4,0.2,0.7,0.4,0.8,0.8c0.2,0.3,0.3,0.7,0.3,1.1c0,0.4-0.1,0.8-0.3,1.2
			c-0.2,0.4-0.4,0.7-0.7,1.1c-0.3,0.3-0.7,0.7-1.2,1.2l-1,1v0.1h3.4L67,45.5L67,45.5z"/>
		<path class="st4" d="M68,40.2c0-0.3,0.1-0.6,0.3-0.7c0.2-0.2,0.4-0.2,0.7-0.2s0.5,0,0.7,0.2s0.3,0.4,0.3,0.7s-0.1,0.6-0.3,0.7
			c-0.2,0.2-0.4,0.2-0.7,0.2s-0.5,0-0.7-0.2C68,40.8,68,40.6,68,40.2z M68,44.7c0-0.3,0.1-0.6,0.3-0.7c0.2-0.2,0.4-0.2,0.7-0.2
			s0.5,0,0.7,0.2s0.3,0.4,0.3,0.7s-0.1,0.5-0.3,0.7c-0.2,0.2-0.4,0.2-0.7,0.2s-0.5,0-0.7-0.2C68,45.3,68,45.1,68,44.7z"/>
		<path class="st4" d="M76.6,43.8h-1v1.7H74v-1.7h-3.4v-1.2l3.4-5.1h1.5v4.9h1L76.6,43.8L76.6,43.8z M74,42.6v-1.4
			c0-0.1,0-0.3,0-0.5s0-0.3,0-0.5s0-0.3,0-0.5s0-0.2,0-0.3l0,0c0,0.2-0.2,0.3-0.2,0.4c-0.1,0.2-0.2,0.3-0.3,0.4l-1.4,2.2H74V42.6z"
			/>
		<path class="st4" d="M78,45.5l3-6.5h-3.9v-1.4h5.7v1l-3,6.8L78,45.5L78,45.5z"/>
	</g>
	<path class="st0" d="M261.3,725.9H112.5c-2.6,0-4.7-2.1-4.7-4.7l0,0c0-2.6,2.1-4.7,4.7-4.7h148.8c2.6,0,4.7,2.1,4.7,4.7l0,0
		C266,723.8,263.9,725.9,261.3,725.9z"/>
</g>
</svg>
