<svg width="56" height="56" viewBox="0 0 56 56" fill="none" xmlns="http://www.w3.org/2000/svg">
<path fill-rule="evenodd" clip-rule="evenodd" d="M28.6219 9.33329C18.3126 9.33329 9.95524 17.6906 9.95524 28C9.95524 38.3093 18.3126 46.6666 28.6219 46.6666C38.9312 46.6666 47.2886 38.3093 47.2886 28C47.2886 17.6906 38.9312 9.33329 28.6219 9.33329ZM5.28857 28C5.28857 15.1133 15.7353 4.66663 28.6219 4.66663C41.5086 4.66663 51.9552 15.1133 51.9552 28C51.9552 40.8866 41.5086 51.3333 28.6219 51.3333C15.7353 51.3333 5.28857 40.8866 5.28857 28Z" fill="white"/>
<path fill-rule="evenodd" clip-rule="evenodd" d="M28.6219 25.6666C29.9106 25.6666 30.9552 26.7113 30.9552 28V37.3333C30.9552 38.622 29.9106 39.6666 28.6219 39.6666C27.3332 39.6666 26.2886 38.622 26.2886 37.3333V28C26.2886 26.7113 27.3332 25.6666 28.6219 25.6666Z" fill="white"/>
<path fill-rule="evenodd" clip-rule="evenodd" d="M26.2886 18.6667C26.2886 17.378 27.3332 16.3334 28.6219 16.3334H28.6452C29.9339 16.3334 30.9786 17.378 30.9786 18.6667C30.9786 19.9554 29.9339 21 28.6452 21H28.6219C27.3332 21 26.2886 19.9554 26.2886 18.6667Z" fill="white"/>
</svg>
