<?xml version="1.0" encoding="utf-8"?>
<!-- Generator: Adobe Illustrator 26.5.0, SVG Export Plug-In . SVG Version: 6.00 Build 0)  -->
<svg version="1.1" id="_x2018_ëîé_x5F_1" xmlns="http://www.w3.org/2000/svg" xmlns:xlink="http://www.w3.org/1999/xlink"
	 x="0px" y="0px" viewBox="0 0 1747.9 1063.9" style="enable-background:new 0 0 1747.9 1063.9;" xml:space="preserve">
<style type="text/css">
	.st0{display:none;fill:#FFFFFF;}
	.st1{fill:#0082C9;}
	.st2{fill:#FFFFFF;}
</style>
<rect x="-607.4" y="210.3" class="st0" width="2752.8" height="2028.5"/>
<path id="path1174" class="st1" d="M526.4,75.8c-2.9,0-3.6,1.4-3.6,4.3v104.2c0,2.9,1.4,3.6,3.6,3.6h2.9c2.9,0,3.6-1.4,3.6-3.6V97.9
	l56.4,87.8c0,0.7,0.7,0.7,0.7,0.7l0,0c0,0,0.7,0,0.7,0.7c0,0,0,0,0.7,0l0,0c0.7,0,0.7,0,1.4,0h2.9c2.9,0,3.6-1.4,3.6-3.6V80.1
	c0-2.9-1.4-4.3-3.6-4.3h-2.9c-2.9,0-4.3,1.4-4.3,4.3v86.3l-55.7-87.8l-0.7-0.7c-0.7-0.7-1.4-1.4-2.9-1.4L526.4,75.8z M1206.5,77.2
	c-2.9,0-1.4,1.4-1.4,4.3v35.7c0,3.6,0,6.4,0,6.4l0,0c0,0-7.1-15.7-25.7-15.7c-20.7,0-35.7,16.4-35,40.7c0,24.3,13.6,41.4,34.3,41.4
	s27.1-16.4,27.1-16.4h0.7c0,0-0.7,2.1-0.7,5v6.4c0,2.9,1.4,3.6,4.3,3.6h2.9c2.9,0,3.6-1.4,3.6-4.3V81.5c0-2.9-4.3-4.3-6.4-4.3
	H1206.5z M928.2,77.9c-2.9,0-0.7,1.4-0.7,4.3V170c0,17.1,11.4,19.3,17.8,19.3c2.9,0,4.3-1.4,4.3-4.3v-2.9c0-2.9-1.4-3.6-3.6-3.6
	c-3.6-0.7-8.6-1.4-8.6-11.4V81.5c0-2.9-4.3-4.3-6.4-4.3L928.2,77.9z M799.7,87.2c-2.9,0-4.3,1.4-4.3,4.3V110v9.3V160
	c0,18.6,10.7,29.3,27.8,29.3c3.6,0,4.3-0.7,4.3-3.6v-2.1c0-2.9-0.7-3.6-4.3-4.3c-6.4-0.7-17.1-2.9-17.1-20.7v-39.2h16.4
	c2.9,0,4.3-0.7,4.3-3.6v-1.4c0-2.9-1.4-4.3-4.3-4.3h-16.4V91.5c0-2.9-0.7-4.3-3.6-4.3H799.7z M657.7,107.2
	c-21.4,0-38.5,15.7-39.2,41.4c0,24.3,17.8,41.4,41.4,41.4c12.8,0,22.1-5.7,26.4-8.6c2.1-1.4,2.1-3.6,1.4-5l-2.1-2.1
	c-1.4-2.1-2.9-2.9-5-1.4c-3.6,2.9-10.7,7.1-20.7,7.1c-16.4,0-30-11.4-30.7-31.4h57.1c2.1,0,4.3-2.1,4.3-4.3
	C690.5,122.2,678.4,107.2,657.7,107.2z M879.6,107.2c-23.5,0-41.4,17.1-41.4,41.4S856,190,879.6,190c14.3,0,24.3-7.1,27.8-10
	c2.1-2.1,2.1-3.6,0.7-5.7l-0.7-1.4c-1.4-2.1-2.9-2.9-5-1.4c-3.6,3.6-11.4,8.6-22.1,8.6c-17.1,0-30.7-12.8-30.7-31.4
	c0-19.3,13.6-32.1,30.7-32.1c9.3,0,16.4,5,20,7.1c2.1,1.4,4.3,1.4,5.7-0.7l1.4-2.1c2.1-2.1,1.4-4.3-0.7-5.7
	C901.8,112.9,893.2,107.2,879.6,107.2L879.6,107.2z M1000.9,107.2c-22.8,0-41.4,17.8-41.4,40.7c0,23.5,18.6,41.4,41.4,41.4
	c22.8,0,41.4-17.8,41.4-41.4C1042.3,125,1023.8,107.2,1000.9,107.2z M769,108.6c-0.7,0-1.4,0.7-2.9,1.4l-14.3,17.1L741.2,140
	l-16.4-19.3l-8.6-10.7c-0.7-0.7-1.4-1.4-2.9-1.4c-0.7,0-2.1,0-2.9,1.4l-2.1,2.1c-2.1,1.4-2.1,3.6,0,5l14.3,17.1l12.1,14.3
	l-17.8,20.7l0,0l-8.6,10.7c-1.4,2.1-1.4,4.3,0.7,5.7l2.1,2.1c2.1,1.4,3.6,1.4,5-0.7l14.3-17.1l10.7-12.8l16.4,19.3l0,0l8.6,10.7
	c1.4,2.1,3.6,2.1,5.7,0.7l2.1-2.1c2.1-1.4,2.1-3.6,0-5l-14.3-17.1l-12.1-14.3l17.8-20.7l0,0l8.6-10.7c1.4-2.1,1.4-4.3-0.7-5.7
	l-2.1-2.1C771.2,108.6,769.7,108.6,769,108.6L769,108.6z M1063.7,109.3c-2.9,0-3.6,1.4-3.6,4.3V160c0,20.7,15,30.7,33.5,30.7
	c18.6,0,33.5-10,33.5-30.7v-46.4c0.7-2.9-0.7-4.3-3.6-4.3h-2.9c-2.9,0-4.3,1.4-4.3,4.3v43.5c0,12.1-7.8,23.5-23.5,23.5
	c-15,0-23.5-11.4-23.5-23.5v-43.5c0-2.9-1.4-4.3-4.3-4.3H1063.7z M657,116.5c11.4,0,21.4,8.6,22.1,25h-49.2
	C632,125,643.4,116.5,657,116.5z M1000.9,117.2c17.1,0,30.7,13.6,30.7,31.4c0,18.6-13.6,32.1-30.7,32.1s-30.7-14.3-30.7-32.1
	C970.3,130.7,983.8,117.2,1000.9,117.2z M1180.1,117.2c17.1,0,25,15.7,25,31.4c0,22.8-12.1,32.1-25.7,32.1c-15,0-25-12.8-25-32.1
	C1155.1,128.6,1166.5,117.2,1180.1,117.2z"/>
<g>
	<g>
		<path class="st1" d="M1498.3,934.2c-8.4,0-16.9-2.6-24.1-8.1c-17.8-13.4-21.4-38.6-8-56.4c81.9-109.1,125.2-238.9,125.2-375.3
			s-43.3-266.2-125.2-375.3c-13.3-17.8-9.8-43,8-56.4c17.8-13.3,43-9.8,56.4,8c92.5,123.2,141.3,269.6,141.3,423.6
			s-48.9,300.5-141.3,423.6C1522.6,928.6,1510.6,934.2,1498.3,934.2z"/>
	</g>
	<g>
		<path class="st1" d="M1344.9,798.2c-8.4,0-16.9-2.6-24.1-8.1c-17.8-13.4-21.4-38.6-8-56.4c52.2-69.6,79.9-152.3,79.9-239.4
			c0-87-27.6-169.8-79.9-239.4c-13.4-17.8-9.8-43,8-56.4c17.8-13.3,43-9.8,56.4,8c62.8,83.6,96,183.1,96,287.7s-33.2,204.1-96,287.7
			C1369.3,792.7,1357.2,798.2,1344.9,798.2z"/>
	</g>
	<g>
		<path class="st1" d="M1191.6,680c-8.4,0-16.9-2.6-24.1-8.1c-17.8-13.4-21.4-38.6-8-56.4c53.6-71.3,53.6-171,0-242.3
			c-13.4-17.8-9.8-43,8-56.4c17.8-13.3,43-9.8,56.4,8c74.9,99.8,74.9,239.2,0,339C1215.9,674.5,1203.8,680,1191.6,680z"/>
	</g>
</g>
<g>
	<g>
		<path class="st1" d="M241.7,934.2c-12.2,0-24.3-5.6-32.2-16.1C117,795,68.2,648.5,68.2,494.5S117.1,194,209.5,70.9
			c13.3-17.8,38.6-21.4,56.4-8s21.4,38.6,8,56.4C192,228.3,148.7,358,148.7,494.5c0,136.4,43.3,266.2,125.2,375.3
			c13.3,17.8,9.8,43-8,56.4C258.6,931.6,250.1,934.2,241.7,934.2z"/>
	</g>
	<g>
		<path class="st1" d="M395.1,798.2c-12.2,0-24.3-5.6-32.2-16.1c-62.8-83.6-96-183.1-96-287.7s33.2-204.1,96-287.7
			c13.3-17.8,38.6-21.4,56.4-8c17.8,13.3,21.4,38.6,8,56.4c-52.2,69.6-79.9,152.3-79.9,239.4c0,87,27.6,169.8,79.9,239.4
			c13.3,17.8,9.8,43-8,56.4C412,795.6,403.5,798.2,395.1,798.2z"/>
	</g>
	<g>
		<path class="st1" d="M548.5,680c-12.2,0-24.3-5.6-32.2-16.1c-74.9-99.8-74.9-239.2,0-339c13.3-17.8,38.6-21.4,56.4-8
			c17.8,13.3,21.4,38.6,8,56.4c-53.6,71.3-53.6,171,0,242.3c13.3,17.8,9.8,43-8,56.4C565.4,677.4,556.9,680,548.5,680z"/>
	</g>
</g>
<g>
	<ellipse class="st1" cx="869.6" cy="494.5" rx="215.6" ry="215.6"/>
	<path class="st2" d="M962.4,480.1l-148.8-85.9c-11.1-6.4-24.9,1.6-24.9,14.4v171.9c0,12.8,13.8,20.7,24.9,14.4L962.4,509
		C973.4,502.4,973.4,486.5,962.4,480.1z"/>
</g>
<g>
	<path class="st1" d="M588,798.2h50.5v123.2h78.8v40.3H588V798.2z"/>
	<path class="st1" d="M744.6,798.2h50.6v163.5h-50.6V798.2z"/>
	<path class="st1" d="M817.6,798.2h52.8l36.8,117.6l36.3-117.6h51.3l-60.7,163.5h-54.8L817.6,798.2z"/>
	<path class="st1" d="M1013.5,798.2h135.4v34.9h-84.7v26h78.6v33.3h-78.6v32.2h87.2v37h-137.8V798.2H1013.5z"/>
</g>
</svg>
