<svg width="193" height="56" viewBox="0 0 193 56" fill="none" xmlns="http://www.w3.org/2000/svg">
<rect width="193" height="56" fill="#293241"/>
<path d="M97.4102 30.4516C94.0477 30.4516 91.3071 32.9562 91.3071 36.4058C91.3071 39.8344 94.0477 42.36 97.4102 42.36C100.774 42.36 103.515 39.8344 103.515 36.4058C103.513 32.9562 100.773 30.4516 97.4102 30.4516ZM97.4102 40.0164C95.5674 40.0164 93.9791 38.5282 93.9791 36.4072C93.9791 34.2638 95.5688 32.798 97.4102 32.798C99.253 32.798 100.841 34.2638 100.841 36.4072C100.841 38.5268 99.253 40.0164 97.4102 40.0164ZM84.0946 30.4516C80.7321 30.4516 77.9915 32.9562 77.9915 36.4058C77.9915 39.8344 80.7321 42.36 84.0946 42.36C87.4585 42.36 90.1991 39.8344 90.1991 36.4058C90.1991 32.9562 87.4585 30.4516 84.0946 30.4516ZM84.0946 40.0164C82.2518 40.0164 80.6635 38.5282 80.6635 36.4072C80.6635 34.2638 82.2532 32.798 84.0946 32.798C85.9374 32.798 87.5257 34.2638 87.5257 36.4072C87.5271 38.5268 85.9374 40.0164 84.0946 40.0164ZM68.2572 32.28V34.8056H74.4303C74.2459 36.2266 73.7627 37.264 73.025 37.985C72.1272 38.8642 70.7218 39.8344 68.2572 39.8344C64.4572 39.8344 61.4864 36.8342 61.4864 33.113C61.4864 29.3918 64.4572 26.3916 68.2572 26.3916C70.3072 26.3916 71.8041 27.1812 72.9092 28.1962L74.7291 26.414C73.1851 24.9706 71.1364 23.866 68.2572 23.866C63.0519 23.866 58.6758 28.0156 58.6758 33.113C58.6758 38.2104 63.0519 42.36 68.2572 42.36C71.0664 42.36 73.1865 41.457 74.8435 39.7658C76.5476 38.097 77.078 35.7506 77.078 33.8564C77.078 33.2712 77.0322 32.7294 76.9393 32.2786H68.2572V32.28ZM133.031 34.2414C132.525 32.9114 130.981 30.4516 127.826 30.4516C124.693 30.4516 122.09 32.8652 122.09 36.4058C122.09 39.7434 124.67 42.36 128.124 42.36C130.911 42.36 132.523 40.6912 133.192 39.721L131.119 38.3672C130.429 39.3598 129.484 40.0136 128.124 40.0136C126.766 40.0136 125.798 39.4046 125.176 38.209L133.307 34.9162L133.031 34.2414ZM124.739 36.2266C124.67 33.925 126.559 32.7532 127.918 32.7532C128.978 32.7532 129.876 33.2726 130.176 34.016L124.739 36.2266ZM118.13 42.0002H120.8V24.4988H118.13V42.0002ZM113.752 31.783H113.661C113.062 31.083 111.909 30.4516 110.46 30.4516C107.419 30.4516 104.633 33.0682 104.633 36.4296C104.633 39.7672 107.419 42.3614 110.46 42.3614C111.911 42.3614 113.062 41.73 113.661 41.009H113.752V41.8658C113.752 44.1436 112.508 45.3616 110.506 45.3616C108.87 45.3616 107.856 44.2122 107.442 43.242L105.116 44.1898C105.784 45.7676 107.556 47.708 110.506 47.708C113.638 47.708 116.287 45.9034 116.287 41.5046V30.8142H113.754V31.783H113.752ZM110.69 40.0164C108.847 40.0164 107.305 38.5044 107.305 36.4296C107.305 34.331 108.847 32.798 110.69 32.798C112.508 32.798 113.937 34.331 113.937 36.4296C113.937 38.5044 112.508 40.0164 110.69 40.0164ZM145.546 24.4988H139.154V42.0002H141.82V35.3698H145.544C148.501 35.3698 151.409 33.274 151.409 29.935C151.409 26.596 148.502 24.4988 145.546 24.4988ZM145.614 32.9338H141.82V26.9348H145.614C147.609 26.9348 148.741 28.5518 148.741 29.935C148.741 31.2902 147.609 32.9338 145.614 32.9338ZM162.101 30.4208C160.169 30.4208 158.169 31.2538 157.342 33.1004L159.709 34.0678C160.215 33.1004 161.159 32.784 162.147 32.784C163.526 32.784 164.929 33.5946 164.952 35.0352V35.2158C164.468 34.9456 163.433 34.541 162.17 34.541C159.618 34.541 157.019 35.9144 157.019 38.4806C157.019 40.8228 159.112 42.3306 161.456 42.3306C163.249 42.3306 164.238 41.5424 164.859 40.6184H164.95V41.9694H167.526V35.2592C167.528 32.154 165.157 30.4208 162.101 30.4208ZM161.778 40.0122C160.906 40.0122 159.686 39.5838 159.686 38.5254C159.686 37.1744 161.205 36.6564 162.516 36.6564C163.686 36.6564 164.24 36.9042 164.952 37.2416C164.744 38.8642 163.319 40.0122 161.778 40.0122ZM176.908 30.803L173.85 38.391H173.758L170.584 30.803H167.711L172.47 41.408L169.757 47.3076H172.539L179.874 30.803H176.908ZM152.881 42.0002H155.547V24.4988H152.881V42.0002Z" fill="white"/>
<path d="M67.7893 14.3401C67.7893 15.5133 67.4348 16.4471 66.7242 17.1443C65.9179 17.9731 64.8657 18.3875 63.5733 18.3875C62.3353 18.3875 61.2816 17.9675 60.4167 17.1275C59.5504 16.2861 59.1172 15.2445 59.1172 14.0013C59.1172 12.7567 59.5504 11.7151 60.4167 10.8751C61.2816 10.0337 62.3353 9.61372 63.5733 9.61372C64.1881 9.61372 64.7757 9.73132 65.3332 9.96512C65.8922 10.2003 66.3397 10.5125 66.6742 10.9031L65.9208 11.6423C65.3532 10.9773 64.5712 10.6455 63.5719 10.6455C62.6684 10.6455 61.8878 10.9563 61.2287 11.5779C60.5697 12.1995 60.2409 13.0073 60.2409 13.9999C60.2409 14.9925 60.5697 15.8003 61.2287 16.4219C61.8878 17.0435 62.6684 17.3543 63.5719 17.3543C64.5298 17.3543 65.3289 17.0421 65.968 16.4163C66.3826 16.0089 66.6227 15.4419 66.6871 14.7153H63.5719V13.7059H67.7278C67.7707 13.9257 67.7893 14.1371 67.7893 14.3401Z" fill="white"/>
<path d="M74.38 10.8318H70.4743V13.4946H73.9969V14.504H70.4743V17.1668H74.38V18.2H69.3721V9.8H74.38V10.8318Z" fill="white"/>
<path d="M79.0276 18.2H77.9254V10.8318H75.5293V9.8H81.4237V10.8318H79.0276V18.2Z" fill="white"/>
<path d="M85.6882 18.2V9.8H86.7904V18.2H85.6882Z" fill="white"/>
<path d="M91.6786 18.2H90.5763V10.8318H88.1803V9.8H94.0746V10.8318H91.6786V18.2Z" fill="white"/>
<path d="M105.233 17.115C104.389 17.9634 103.341 18.3876 102.087 18.3876C100.834 18.3876 99.7857 17.9634 98.9436 17.115C98.1001 16.2666 97.6798 15.2278 97.6798 14C97.6798 12.7722 98.1001 11.7334 98.9436 10.885C99.7857 10.0366 100.834 9.61098 102.087 9.61098C103.334 9.61098 104.381 10.038 105.227 10.8906C106.073 11.7432 106.496 12.7792 106.496 14C106.496 15.2278 106.075 16.2666 105.233 17.115ZM99.7571 16.4108C100.392 17.0408 101.168 17.3544 102.087 17.3544C103.007 17.3544 103.784 17.0394 104.418 16.4108C105.052 15.7808 105.371 14.9772 105.371 14C105.371 13.0228 105.052 12.2192 104.418 11.5892C103.784 10.9592 103.007 10.6456 102.087 10.6456C101.168 10.6456 100.392 10.9606 99.7571 11.5892C99.1238 12.2192 98.805 13.0228 98.805 14C98.805 14.9772 99.1238 15.7808 99.7571 16.4108Z" fill="white"/>
<path d="M108.043 18.2V9.8H109.384L113.553 16.3338H113.6L113.553 14.7154V9.8H114.655V18.2H113.504L109.143 11.3484H109.095L109.143 12.9668V18.2H108.043Z" fill="white"/>
<path d="M67.7893 14.3401C67.7893 15.5133 67.4348 16.4471 66.7242 17.1443C65.9179 17.9731 64.8657 18.3875 63.5733 18.3875C62.3353 18.3875 61.2816 17.9675 60.4167 17.1275C59.5504 16.2861 59.1172 15.2445 59.1172 14.0013C59.1172 12.7567 59.5504 11.7151 60.4167 10.8751C61.2816 10.0337 62.3353 9.61372 63.5733 9.61372C64.1881 9.61372 64.7757 9.73132 65.3332 9.96512C65.8922 10.2003 66.3397 10.5125 66.6742 10.9031L65.9208 11.6423C65.3532 10.9773 64.5712 10.6455 63.5719 10.6455C62.6684 10.6455 61.8878 10.9563 61.2287 11.5779C60.5697 12.1995 60.2409 13.0073 60.2409 13.9999C60.2409 14.9925 60.5697 15.8003 61.2287 16.4219C61.8878 17.0435 62.6684 17.3543 63.5719 17.3543C64.5298 17.3543 65.3289 17.0421 65.968 16.4163C66.3826 16.0089 66.6227 15.4419 66.6871 14.7153H63.5719V13.7059H67.7278C67.7707 13.9257 67.7893 14.1371 67.7893 14.3401Z" stroke="white" stroke-width="0.2" stroke-miterlimit="10"/>
<path d="M74.38 10.8318H70.4743V13.4946H73.9969V14.504H70.4743V17.1668H74.38V18.2H69.3721V9.8H74.38V10.8318Z" stroke="white" stroke-width="0.2" stroke-miterlimit="10"/>
<path d="M79.0276 18.2H77.9254V10.8318H75.5293V9.8H81.4237V10.8318H79.0276V18.2Z" stroke="white" stroke-width="0.2" stroke-miterlimit="10"/>
<path d="M85.6882 18.2V9.8H86.7904V18.2H85.6882Z" stroke="white" stroke-width="0.2" stroke-miterlimit="10"/>
<path d="M91.6786 18.2H90.5763V10.8318H88.1803V9.8H94.0746V10.8318H91.6786V18.2Z" stroke="white" stroke-width="0.2" stroke-miterlimit="10"/>
<path d="M105.233 17.115C104.389 17.9634 103.341 18.3876 102.087 18.3876C100.834 18.3876 99.7857 17.9634 98.9436 17.115C98.1001 16.2666 97.6798 15.2278 97.6798 14C97.6798 12.7722 98.1001 11.7334 98.9436 10.885C99.7857 10.0366 100.834 9.61098 102.087 9.61098C103.334 9.61098 104.381 10.038 105.227 10.8906C106.073 11.7432 106.496 12.7792 106.496 14C106.496 15.2278 106.075 16.2666 105.233 17.115ZM99.7571 16.4108C100.392 17.0408 101.168 17.3544 102.087 17.3544C103.007 17.3544 103.784 17.0394 104.418 16.4108C105.052 15.7808 105.371 14.9772 105.371 14C105.371 13.0228 105.052 12.2192 104.418 11.5892C103.784 10.9592 103.007 10.6456 102.087 10.6456C101.168 10.6456 100.392 10.9606 99.7571 11.5892C99.1238 12.2192 98.805 13.0228 98.805 14C98.805 14.9772 99.1238 15.7808 99.7571 16.4108Z" stroke="white" stroke-width="0.2" stroke-miterlimit="10"/>
<path d="M108.043 18.2V9.8H109.384L113.553 16.3338H113.6L113.553 14.7154V9.8H114.655V18.2H113.504L109.143 11.3484H109.095L109.143 12.9668V18.2H108.043Z" stroke="white" stroke-width="0.2" stroke-miterlimit="10"/>
<path fill-rule="evenodd" clip-rule="evenodd" d="M14.6183 10.9592C14.3877 11.3649 14.2578 11.8904 14.2578 12.5202V43.4826C14.2578 44.1137 14.3878 44.6391 14.6187 45.0445L32.0206 28.0009L14.6183 10.9592ZM15.3169 45.7604C15.9753 46.1382 16.8868 46.0938 17.8905 45.5364L38.3188 34.1686L32.7352 28.7007L15.3169 45.7604ZM39.2311 33.6624L45.7697 30.0244C47.7669 28.9114 47.7669 27.0928 45.7697 25.9812L39.2283 22.3412L33.4498 28.0008L39.2311 33.6624ZM38.3169 21.8341L17.8905 10.4678C16.8868 9.90926 15.9752 9.8656 15.3169 10.2437L32.7352 27.301L38.3169 21.8341Z" fill="white"/>
</svg>
