<svg width="43" height="43" viewBox="0 0 43 43" fill="none" xmlns="http://www.w3.org/2000/svg">
<g opacity="0.7">
<path fill-rule="evenodd" clip-rule="evenodd" d="M25.3798 34.7673C32.2816 30.4704 36.1158 25.4693 36.8825 19.7637C38.0761 10.8815 29.8825 6.53396 25.7309 10.4402C21.5793 14.3464 24.0679 19.3047 27.0741 20.6599C30.0802 22.0153 31.9186 21.5433 31.5979 23.3543C31.2773 25.1655 27.0004 30.187 23.243 32.5255C22.9937 32.731 22.8988 33.1298 23.1388 33.4322C23.2968 33.6312 23.6064 34.0214 24.0679 34.6028C24.4714 35.1113 24.858 35.0923 25.3798 34.7673Z" fill="#1CAFFF" fill-opacity="0.34"/>
<path fill-rule="evenodd" clip-rule="evenodd" d="M8.37991 34.7673C15.2815 30.4704 19.1157 25.4693 19.8825 19.7637C21.076 10.8815 12.8824 6.53396 8.73083 10.4402C4.57923 14.3464 7.06787 19.3047 10.074 20.6599C13.0802 22.0153 14.9187 21.5433 14.5979 23.3543C14.2772 25.1655 10.0004 30.187 6.24294 32.5255C5.99365 32.731 5.8988 33.1298 6.13891 33.4322C6.29673 33.6312 6.60641 34.0214 7.06787 34.6028C7.4714 35.1113 7.85797 35.0923 8.37991 34.7673Z" fill="#1CAFFF" fill-opacity="0.34"/>
</g>
</svg>
