<svg width="43" height="43" viewBox="0 0 43 43" fill="none" xmlns="http://www.w3.org/2000/svg">
<g opacity="0.7">
<path fill-rule="evenodd" clip-rule="evenodd" d="M17.6202 8.23266C10.7184 12.5296 6.88424 17.5307 6.11753 23.2363C4.92394 32.1185 13.1175 36.466 17.2691 32.5598C21.4207 28.6536 18.9321 23.6953 15.9259 22.3401C12.9198 20.9847 11.0814 21.4567 11.4021 19.6457C11.7227 17.8345 15.9996 12.813 19.757 10.4745C20.0063 10.269 20.1012 9.87022 19.8612 9.56778C19.7032 9.36876 19.3936 8.9786 18.9321 8.39716C18.5286 7.88872 18.142 7.90774 17.6202 8.23266Z" fill="#1CAFFF" fill-opacity="0.34"/>
<path fill-rule="evenodd" clip-rule="evenodd" d="M34.6201 8.23266C27.7185 12.5296 23.8843 17.5307 23.1175 23.2363C21.924 32.1185 30.1176 36.466 34.2692 32.5598C38.4208 28.6536 35.9321 23.6953 32.926 22.3401C29.9198 20.9847 28.0813 21.4567 28.4021 19.6457C28.7228 17.8345 32.9996 12.813 36.7571 10.4745C37.0063 10.269 37.1012 9.87022 36.8611 9.56778C36.7033 9.36876 36.3936 8.9786 35.9321 8.39716C35.5286 7.88872 35.142 7.90774 34.6201 8.23266Z" fill="#1CAFFF" fill-opacity="0.34"/>
</g>
</svg>
