<svg width="22" height="22" viewBox="0 0 22 22" fill="none" xmlns="http://www.w3.org/2000/svg">
<path d="M8.25 6.1875C8.25 6.73451 8.0327 7.25911 7.64591 7.64591C7.25911 8.0327 6.73451 8.25 6.1875 8.25C5.64049 8.25 5.11589 8.0327 4.72909 7.64591C4.3423 7.25911 4.125 6.73451 4.125 6.1875C4.125 5.64049 4.3423 5.11589 4.72909 4.72909C5.11589 4.3423 5.64049 4.125 6.1875 4.125C6.73451 4.125 7.25911 4.3423 7.64591 4.72909C8.0327 5.11589 8.25 5.64049 8.25 6.1875ZM6.875 6.1875C6.875 6.00516 6.80257 5.8303 6.67364 5.70136C6.5447 5.57243 6.36984 5.5 6.1875 5.5C6.00516 5.5 5.8303 5.57243 5.70136 5.70136C5.57243 5.8303 5.5 6.00516 5.5 6.1875C5.5 6.36984 5.57243 6.5447 5.70136 6.67364C5.8303 6.80257 6.00516 6.875 6.1875 6.875C6.36984 6.875 6.5447 6.80257 6.67364 6.67364C6.80257 6.5447 6.875 6.36984 6.875 6.1875Z" fill="white"/>
<path d="M2.75 1.375H9.05575C9.42039 1.37508 9.77007 1.51999 10.0279 1.77787L19.6529 11.4029C19.9106 11.6607 20.0555 12.0104 20.0555 12.375C20.0555 12.7396 19.9106 13.0893 19.6529 13.3471L13.3471 19.6529C13.0893 19.9106 12.7396 20.0555 12.375 20.0555C12.0104 20.0555 11.6607 19.9106 11.4029 19.6529L1.77787 10.0279C1.51999 9.77007 1.37508 9.42039 1.375 9.05575V2.75C1.375 2.38533 1.51987 2.03559 1.77773 1.77773C2.03559 1.51987 2.38533 1.375 2.75 1.375ZM2.75 9.05575L12.375 18.6807L18.6807 12.375L9.05575 2.75H2.75V9.05575Z" fill="white"/>
</svg>
