<svg width="23" height="24" viewBox="0 0 23 24" fill="none" xmlns="http://www.w3.org/2000/svg">
<path d="M3.71723 17.6512C4.14093 16.6476 4.7558 15.7359 5.52758 14.9671C6.29702 14.196 7.20849 13.5813 8.21166 13.1567C8.22065 13.1522 8.22963 13.15 8.23862 13.1455C6.8393 12.1348 5.92963 10.4884 5.92963 8.63086C5.92963 5.55371 8.4228 3.06055 11.4999 3.06055C14.5771 3.06055 17.0703 5.55371 17.0703 8.63086C17.0703 10.4884 16.1606 12.1348 14.7613 13.1478C14.7703 13.1522 14.7792 13.1545 14.7882 13.159C15.7945 13.5835 16.6974 14.1922 17.4723 14.9693C18.2434 15.7388 18.8581 16.6502 19.2827 17.6534C19.6997 18.6355 19.9246 19.6885 19.9453 20.7553C19.9459 20.7792 19.9417 20.8031 19.9329 20.8254C19.9241 20.8477 19.911 20.8681 19.8942 20.8852C19.8775 20.9024 19.8575 20.916 19.8354 20.9254C19.8133 20.9347 19.7895 20.9395 19.7656 20.9395H18.4179C18.3191 20.9395 18.2405 20.8608 18.2382 20.7643C18.1933 19.0303 17.497 17.4063 16.2662 16.1755C14.9926 14.902 13.3013 14.2012 11.4999 14.2012C9.69858 14.2012 8.00727 14.902 6.73373 16.1755C5.50287 17.4063 4.80659 19.0303 4.76166 20.7643C4.75942 20.8631 4.6808 20.9395 4.58198 20.9395H3.23432C3.21034 20.9395 3.1866 20.9347 3.1645 20.9254C3.1424 20.916 3.12239 20.9024 3.10565 20.8852C3.0889 20.8681 3.07576 20.8477 3.067 20.8254C3.05824 20.8031 3.05403 20.7792 3.05463 20.7553C3.07709 19.6816 3.29946 18.6372 3.71723 17.6512ZM11.4999 12.4941C12.5309 12.4941 13.5012 12.0921 14.2312 11.3621C14.9612 10.6321 15.3632 9.66182 15.3632 8.63086C15.3632 7.5999 14.9612 6.62959 14.2312 5.89961C13.5012 5.16963 12.5309 4.76758 11.4999 4.76758C10.469 4.76758 9.49868 5.16963 8.76869 5.89961C8.03871 6.62959 7.63666 7.5999 7.63666 8.63086C7.63666 9.66182 8.03871 10.6321 8.76869 11.3621C9.49868 12.0921 10.469 12.4941 11.4999 12.4941Z" fill="white"/>
</svg>
